<?xml  version="1.0" encoding="UTF-8"?>
<!DOCTYPE svg PUBLIC "-//W3C//DTD SVG 1.0//EN" "http://www.w3.org/TR/2001/REC-SVG-20010904/DTD/svg10.dtd" >
<svg xmlns="http://www.w3.org/2000/svg" >
<metadata>
<version>1.0</version>
<id><![CDATA[Proxima N W01 Black It]]></id>
<vendor>Monotype Imaging Inc.</vendor>
<credits>
<name>Fonts.com WebFonts</name>
<URL>http://webfonts.fonts.com</URL>
<role>Home of the Web fonts</role>
</credits>
<license>
<URL>http://webfonts.fonts.com/Legal</URL>
</license>
<copyright><![CDATA[Copyright (c) Mark Simonson, 2005. All rights reserved.]]></copyright>
<trademark><![CDATA[Proxima Nova is a trademark of Mark Simonson.]]></trademark>
<licensee>
<name></name>
</licensee>
</metadata>
<defs >
<font horiz-adv-x="544" id="b36bf547-92bc-4b0a-ad51-6ac62c852999">
<font-face font-family="" panose-1="2 0 5 6 3 0 0 2 0 4" ascent="741" descent="-259" units-per-em="1000" alphabetic="0">
</font-face>
<missing-glyph horiz-adv-x="0" />

<glyph unicode="&#xA;" />
<glyph unicode="&#xD;" horiz-adv-x="0" />
<glyph unicode=" " horiz-adv-x="255" />
<glyph unicode="!" horiz-adv-x="283" d="M60 248L126 667H340L222 248H60ZM98 -13Q57 -13 29 16T1 86Q1 110 10 131T36 167T73 192T118 202Q159 202 187 173T215 103Q215 79 206 58T180 22T143 -3T98 -13Z"  />
<glyph unicode="&quot;" horiz-adv-x="469" d="M110 339Q109 398 108 446Q108 467 108 487T107 524T107 554T107 571Q107 593 115 612T138 646T172 669T213 677Q245 677 269 654T294 594Q294 583 291 573T285 557Q283 552 278 541T266 513T249 478T231 439Q210 393 184 339H110ZM328 339Q327 398 326 446Q326 467 326 487T325 524T325 554T325 571Q325 593 333 612T356 646T390 669T431 677Q463 677 487 654T512 594Q512 583 509 573T503 557Q501 552 496 541T484 513T467 478T449 439Q428 393 402 339H328Z"  />
<glyph unicode="#" horiz-adv-x="646" d="M196 0L284 158H205L118 0H-9L79 158H-7L52 267H140L212 399H125L183 507H273L361 667H488L400 507H478L566 667H693L604 507H692L635 399H544L471 267H562L504 158H410L323 0H196ZM417 399H339L267 267H344L417 399Z"  />
<glyph unicode="$" horiz-adv-x="635" d="M208 1Q140 16 86 46T-3 118L117 262Q134 239 159 221T215 189T279 168T347 160Q376 160 388 170T400 189Q400 203 377 213T318 235T241 261T164 299T105 355T81 438Q81 481 98 523T150 598T236 653T357 677L378 768H506L482 662Q533 649 578 625T658 566L537 426Q495 468 439 487T334 507Q314 507 304 499T293 480Q293 467 316 457T376 435T453 408T530 370T589 313T613 231Q613 178 594 134T538 58T449 7T333 -12L313 -100H185L208 1Z"  />
<glyph unicode="%" horiz-adv-x="784" d="M77 0L650 667H748L174 0H77ZM555 -12Q522 -12 491 -3T436 25T398 69T384 130Q384 173 399 209T441 270T502 310T576 324Q609 324 640 315T695 287T733 243T747 182Q747 139 732 103T690 42T629 2T555 -12ZM559 94Q587 94 606 114T625 171Q625 191 611 204T572 218Q544 218 525 198T506 141Q506 121 520 108T559 94ZM247 341Q214 341 183 350T128 378T90 422T76 483Q76 526 91 562T133 623T194 663T268 677Q301 677 332 668T387 640T425 596T439 535Q439 492 424 456T382 395T321 355T247 341ZM251 447Q279 447 298 467T317 524Q317 544 303 557T264 571Q236 571 217 551T198 494Q198 474 212 461T251 447Z"  />
<glyph unicode="&amp;" horiz-adv-x="652" d="M388 0Q384 5 381 10T372 22Q299 -12 225 -12Q176 -12 134 -2T61 30T12 87T-6 173Q-6 221 9 256T51 317T111 360T182 391Q176 415 173 438T169 484Q169 526 186 561T232 622T302 662T391 677Q429 677 465 668T529 640T574 593T591 526Q591 482 574 452T529 401T464 366T391 341Q396 330 401 320T413 298L444 239Q488 286 517 338L641 258Q613 221 582 186T515 119Q534 90 553 61T595 0H388ZM257 126Q277 126 297 133Q286 151 276 167T260 197Q250 215 241 233T224 271Q189 241 189 194Q189 160 208 143T257 126ZM347 485Q347 462 353 440Q389 452 412 467T435 509Q435 531 425 541T398 552Q378 552 363 536T347 485Z"  />
<glyph unicode="&apos;" horiz-adv-x="252" d="M110 339Q109 398 108 446Q108 467 108 487T107 524T107 554T107 571Q107 593 115 612T138 646T172 669T213 677Q245 677 269 654T294 594Q294 583 291 573T285 557Q283 552 278 541T266 513T249 478T231 439Q210 393 184 339H110Z"  />
<glyph unicode="(" horiz-adv-x="346" d="M118 -199Q94 -170 76 -133T46 -53T28 34T22 123Q22 202 43 281T102 434T193 572T311 685L406 588Q360 538 324 479T263 355T224 220T210 81Q210 26 221 -27T250 -123L118 -199Z"  />
<glyph unicode=")" horiz-adv-x="347" d="M227 685Q251 656 269 619T299 539T317 452T323 363Q323 284 302 205T243 52T152 -86T34 -199L-61 -102Q-15 -52 21 7T82 131T121 266T135 405Q135 460 124 513T95 609L227 685Z"  />
<glyph unicode="*" horiz-adv-x="363" d="M161 343L190 453L89 408L66 481L168 518L86 575L142 639L217 575L236 677H318L288 567L389 613L413 539L312 502L393 445L336 381L261 445L244 343H161Z"  />
<glyph unicode="+" horiz-adv-x="510" d="M322 285L279 92H163L206 285H38L61 390H229L270 575H386L345 390H513L490 285H322Z"  />
<glyph unicode="&#x2c;" horiz-adv-x="283" d="M220 97Q220 63 207 29T170 -37T114 -96T42 -141L-18 -79Q-5 -74 11 -66T43 -46T72 -22T94 5Q92 4 88 4T81 4Q49 4 25 24T0 89Q0 112 10 132T36 168T74 193T118 202Q137 202 155 196T188 176T211 143T220 97Z"  />
<glyph unicode="-" horiz-adv-x="300" d="M13 167L46 317H286L253 167H13Z"  />
<glyph unicode="." horiz-adv-x="283" d="M98 -13Q57 -13 29 16T1 86Q1 110 10 131T36 167T73 192T118 202Q159 202 187 173T215 103Q215 79 206 58T180 22T143 -3T98 -13Z"  />
<glyph unicode="/" horiz-adv-x="362" d="M-61 -20L332 687H463L69 -20H-61Z"  />
<glyph unicode="0" horiz-adv-x="628" d="M290 -12Q234 -12 186 5T103 57T48 144T28 266Q28 353 54 428T128 558T238 645T377 677Q433 677 480 660T563 608T618 521T638 400Q638 313 612 238T539 108T429 20T290 -12ZM309 166Q340 166 364 189T403 249T427 327T435 409Q435 451 417 475T357 499Q325 499 302 476T262 417T238 339T230 257Q230 215 249 191T309 166Z"  />
<glyph unicode="1" horiz-adv-x="483" d="M173 0L263 410L126 298L38 417L348 667H522L375 0H173Z"  />
<glyph unicode="2" horiz-adv-x="613" d="M-13 0L26 183Q137 241 212 281T334 351T401 403T421 449Q421 473 394 487T325 501Q271 501 232 484T163 446L83 592Q134 633 202 655T341 677Q399 677 452 663T544 621T607 555T631 464Q631 422 616 385T566 312T480 244T354 176H571L532 0H-13Z"  />
<glyph unicode="3" horiz-adv-x="617" d="M306 -12Q256 -12 208 -4T116 22T38 65T-22 127L107 252Q126 229 151 213T202 187T255 171T304 166Q347 166 364 179T382 211Q382 217 380 223T368 235T339 243T286 247Q275 247 260 247T231 247T205 246T189 245L229 424Q233 424 245 424T272 423T301 423T325 423Q373 423 399 429T425 459Q425 480 397 490T315 500Q272 500 232 489T159 457L92 593Q136 631 198 654T336 677Q405 677 460 665T554 630T613 573T634 497Q634 468 618 442T577 394T519 358T454 338Q481 331 504 320T544 291T571 248T581 189Q581 143 559 106T498 43T410 2T306 -12Z"  />
<glyph unicode="4" horiz-adv-x="636" d="M285 0L308 107H-13L26 279L343 667H634L549 283H626L587 107H510L487 0H285ZM394 493L221 283H347L394 493Z"  />
<glyph unicode="5" horiz-adv-x="626" d="M313 -12Q207 -12 129 21T2 112L141 241Q169 209 213 188T314 166Q361 166 380 183T399 223Q399 248 372 262T298 276Q260 276 238 269T192 243L63 290L145 667H655L616 491H308L288 397Q317 420 344 429T414 438Q456 438 491 425T553 388T595 329T610 248Q610 194 589 147T529 65T435 9T313 -12Z"  />
<glyph unicode="6" horiz-adv-x="625" d="M319 -12Q251 -12 196 6T103 60T45 145T24 259Q24 350 51 427T129 559T251 646T412 677Q490 677 550 655T657 596L538 451Q511 476 474 487T399 499Q350 499 310 478T252 422Q248 415 246 407T241 390Q267 416 308 430T395 445Q440 445 480 432T550 393T597 333T615 253Q615 197 591 149T527 65T432 9T319 -12ZM318 166Q354 166 379 182T404 228Q404 241 395 251T371 269T337 281T296 285Q274 285 255 280T222 267Q221 262 221 257T221 246Q221 226 229 211T252 186T283 171T318 166Z"  />
<glyph unicode="7" horiz-adv-x="575" d="M58 0L375 491H72L111 667H656L625 527L289 0H58Z"  />
<glyph unicode="8" horiz-adv-x="630" d="M299 -12Q243 -12 190 -2T94 30T25 88T-1 175Q-1 203 9 230T39 283T91 328T167 363Q129 383 105 416T81 491Q81 541 106 576T173 634T266 667T369 677Q420 677 472 667T566 636T634 581T661 499Q661 439 619 392T504 326Q555 296 578 258T601 181Q601 133 575 97T507 36T410 0T299 -12ZM354 421Q396 423 420 435T445 464Q445 486 421 499T358 513Q328 513 306 501T284 471Q284 454 306 441T354 421ZM306 152Q348 152 372 165T396 197Q396 217 375 232T316 255Q295 254 277 251T244 241T221 224T212 201Q212 178 235 165T306 152Z"  />
<glyph unicode="9" horiz-adv-x="625" d="M344 678Q412 678 466 660T559 606T618 521T639 407Q639 315 612 239T534 107T412 20T251 -11Q173 -11 113 11T6 70L125 215Q152 190 189 179T264 167Q313 167 353 188T411 244Q415 251 417 259T422 276Q396 250 355 236T268 221Q223 221 183 234T113 273T66 333T48 413Q48 468 72 516T136 601T231 657T344 678ZM345 500Q309 500 284 484T259 438Q259 425 268 415T292 397T326 385T367 381Q389 381 408 386T441 399Q442 404 442 409T442 420Q442 440 434 455T411 480T380 495T345 500Z"  />
<glyph unicode=":" horiz-adv-x="283" d="M98 -13Q57 -13 29 16T1 86Q1 110 10 131T36 167T73 192T118 202Q159 202 187 173T215 103Q215 79 206 58T180 22T143 -3T98 -13ZM161 276Q120 276 92 305T64 375Q64 399 73 420T99 456T136 481T181 491Q222 491 250 462T278 392Q278 368 269 347T243 311T206 286T161 276Z"  />
<glyph unicode=";" horiz-adv-x="283" d="M220 97Q220 63 207 29T170 -37T114 -96T42 -141L-18 -79Q-5 -74 11 -66T43 -46T72 -22T94 5Q92 4 88 4T81 4Q49 4 25 24T0 89Q0 112 10 132T36 168T74 193T118 202Q137 202 155 196T188 176T211 143T220 97ZM161 276Q120 276 92 305T64 375Q64 399 73 420T99 456T136 481T181 491Q222 491 250 462T278 392Q278 368 269 347T243 311T206 286T161 276Z"  />
<glyph unicode="&lt;" horiz-adv-x="510" d="M34 270L63 400L555 580L526 450L166 329L473 210L446 90L34 270Z"  />
<glyph unicode="=" horiz-adv-x="510" d="M57 373L80 478H532L509 373H57ZM17 190L40 295H492L469 190H17Z"  />
<glyph unicode="&gt;" horiz-adv-x="510" d="M-6 90L23 220L384 339L76 460L103 580L515 400L486 270L-6 90Z"  />
<glyph unicode="?" horiz-adv-x="450" d="M148 224Q143 238 141 255T138 293Q138 330 149 356T177 399T213 429T250 449T278 465T289 481Q289 491 280 496T247 501Q227 501 203 494T158 470L75 609Q124 646 177 661T280 677Q323 677 363 668T434 639T483 593T502 528Q502 484 488 455T452 406T406 372T359 345T324 316T309 277Q309 275 310 270T314 260L148 224ZM185 -13Q144 -13 116 16T88 86Q88 110 97 131T123 167T160 192T205 202Q246 202 274 173T302 103Q302 79 293 58T267 22T230 -3T185 -13Z"  />
<glyph unicode="@" horiz-adv-x="783" d="M372 -70Q304 -70 246 -46T146 20T79 120T55 244Q55 323 88 394T175 520T302 606T452 638Q525 638 583 614T682 550T745 456T767 343Q767 276 745 227T690 147T617 100T544 85Q496 85 473 105T441 151L439 158Q413 120 378 103T310 85Q272 85 243 98T194 135T164 191T153 259Q153 307 171 350T219 425T288 477T370 497Q412 497 443 482T492 441L501 485H659L613 268Q612 264 611 255T610 241Q610 220 617 212T638 203Q653 203 667 212T692 239T710 283T717 343Q717 400 699 446T645 526T561 576T448 594Q378 594 315 566T204 491T128 380T100 247Q100 189 121 139T178 52T266 -6T377 -27Q425 -27 470 -13T556 27L580 -7Q533 -37 481 -53T372 -70ZM378 209Q406 209 423 222T452 250L471 345Q464 355 450 364T413 373Q390 373 372 365T341 342T322 310T315 273Q315 244 332 227T378 209Z"  />
<glyph unicode="A" horiz-adv-x="710" d="M455 0L448 78H208L167 0H-72L321 667H575L674 0H455ZM414 469L301 254H433L414 469Z"  />
<glyph unicode="B" horiz-adv-x="697" d="M0 0L147 667H518Q569 667 605 653T665 614T700 561T711 501Q711 469 699 440T666 387T618 349T561 331Q585 324 603 311T633 279T650 241T656 199Q656 166 644 131T604 67T531 19T419 0H0ZM447 421Q476 421 486 435T496 466Q496 480 487 489T460 499H314L295 421H447ZM398 168Q424 168 439 181T455 215Q455 232 445 242T417 253H258L239 168H398Z"  />
<glyph unicode="C" horiz-adv-x="697" d="M376 -12Q304 -12 241 9T131 70T56 166T28 294Q28 381 59 451T145 572T273 650T429 678Q502 678 557 659T650 608T713 537T749 457L555 396Q546 443 510 471T420 500Q379 500 346 484T288 442T251 380T237 308Q237 279 247 254T277 209T324 178T387 166Q406 166 426 172T465 188T498 213T522 243L680 141Q649 96 611 67T531 20T450 -5T376 -12Z"  />
<glyph unicode="D" horiz-adv-x="736" d="M0 0L147 667H440Q495 667 549 647T646 590T715 499T742 379Q742 316 720 249T646 126T509 36T297 0H0ZM334 176Q381 176 418 191T480 231T519 291T533 364Q533 391 524 414T497 454T456 481T403 491H310L241 176H330H334Z"  />
<glyph unicode="E" horiz-adv-x="596" d="M0 0L147 667H653L614 491H310L296 425H593L554 249H257L241 176H545L506 0H0Z"  />
<glyph unicode="F" horiz-adv-x="592" d="M0 0L147 667H653L614 491H310L296 425H593L554 249H257L202 0H0Z"  />
<glyph unicode="G" horiz-adv-x="726" d="M376 -12Q307 -12 244 8T133 68T57 164T28 294Q28 376 58 446T143 568T276 649T449 678Q509 678 556 662T640 619T700 559T736 493L550 417Q546 432 535 447T506 474T466 493T420 500Q382 500 349 485T290 444T251 383T237 308Q237 282 247 257T276 211T323 179T387 166Q437 166 478 196L483 221H359L399 397H724L663 123Q615 60 541 24T376 -12Z"  />
<glyph unicode="H" horiz-adv-x="751" d="M441 0L497 255H258L202 0H0L147 667H349L297 431H536L588 667H790L643 0H441Z"  />
<glyph unicode="I" horiz-adv-x="310" d="M0 0L147 667H349L202 0H0Z"  />
<glyph unicode="J" horiz-adv-x="498" d="M171 -12Q116 -12 59 3T-36 54L68 207Q82 190 106 178T156 166Q191 166 212 186T241 241L335 667H537L442 238Q428 174 406 127T351 49T274 3T171 -12Z"  />
<glyph unicode="K" horiz-adv-x="671" d="M399 0L296 241L243 185L202 0H0L147 667H349L297 431L514 667H771L451 357L635 0H399Z"  />
<glyph unicode="L" horiz-adv-x="536" d="M0 0L147 667H349L241 176H494L455 0H0Z"  />
<glyph unicode="M" horiz-adv-x="900" d="M590 0L678 401L441 0H351L290 401L202 0H0L147 667H419L465 347L653 667H939L792 0H590Z"  />
<glyph unicode="N" horiz-adv-x="750" d="M448 0L278 346L202 0H0L147 667H355L515 343L587 667H789L642 0H448Z"  />
<glyph unicode="O" horiz-adv-x="766" d="M376 -12Q302 -12 238 10T128 73T55 170T28 294Q28 374 58 444T141 566T268 648T429 678Q503 678 566 656T676 594T749 497T776 374Q776 294 746 224T663 102T537 19T376 -12ZM387 166Q427 166 460 181T517 223T554 285T567 358Q567 389 556 415T526 460T479 489T417 500Q377 500 344 485T287 443T250 381T237 308Q237 277 248 251T278 206T325 177T387 166Z"  />
<glyph unicode="P" horiz-adv-x="662" d="M0 0L147 667H499Q541 667 577 652T639 610T680 547T695 470Q695 434 682 389T634 304T544 237T400 210H248L202 0H0ZM410 386Q438 386 462 402T486 447Q486 470 472 480T431 491H310L287 386H410Z"  />
<glyph unicode="Q" horiz-adv-x="766" d="M376 -12Q302 -12 238 10T128 73T55 170T28 294Q28 374 58 444T141 566T268 648T429 678Q503 678 566 656T676 594T749 497T776 374Q776 281 737 203T628 71L656 23L495 -50L468 -2Q445 -7 423 -9T376 -12ZM499 297L530 241Q547 266 557 296T567 358Q567 389 556 415T526 460T479 489T417 500Q377 500 344 485T287 443T250 381T237 308Q237 250 273 211T371 166L338 224L499 297Z"  />
<glyph unicode="R" horiz-adv-x="678" d="M375 0L329 210H248L202 0H0L147 667H471Q516 667 557 653T628 612T677 549T695 465Q695 421 682 382T646 312T594 259T531 225L597 0H375ZM410 386Q443 386 464 400T486 443Q486 464 470 477T430 491H310L287 386H407H410Z"  />
<glyph unicode="S" horiz-adv-x="613" d="M316 -12Q263 -12 214 -3T121 23T42 64T-18 118L102 262Q119 239 144 221T200 189T264 168T332 160Q361 160 373 170T385 189Q385 203 362 213T303 235T226 261T149 299T90 355T66 438Q66 481 84 524T138 601T227 656T352 677Q434 677 511 649T643 566L522 426Q480 468 424 487T319 507Q299 507 289 499T278 480Q278 467 301 457T361 435T438 408T515 370T574 313T598 231Q598 178 578 134T522 57T433 7T316 -12Z"  />
<glyph unicode="T" horiz-adv-x="595" d="M143 0L251 491H72L111 667H670L631 491H453L345 0H143Z"  />
<glyph unicode="U" horiz-adv-x="767" d="M376 -12Q294 -12 234 6T134 56T75 133T55 232Q55 238 56 252T60 274L147 667H352L266 279Q264 269 264 255Q264 239 271 223T292 193T326 172T376 164Q438 164 471 197T515 279L601 667H806L719 275Q706 215 681 163T615 71T516 10T376 -12Z"  />
<glyph unicode="V" horiz-adv-x="710" d="M174 0L75 667H294L339 218L582 667H821L428 0H174Z"  />
<glyph unicode="W" horiz-adv-x="954" d="M509 0L506 378L337 0H125L81 667H302L298 259L489 667H641L652 259L827 667H1059L721 0H509Z"  />
<glyph unicode="X" horiz-adv-x="684" d="M420 0L334 192L176 0H-72L235 354L90 667H317L392 489L531 667H780L492 331L648 0H420Z"  />
<glyph unicode="Y" horiz-adv-x="664" d="M178 0L236 265L75 667H292L366 442L538 667H775L438 265L380 0H178Z"  />
<glyph unicode="Z" horiz-adv-x="600" d="M-18 0L17 160L334 491H90L129 667H650L615 508L297 176H549L510 0H-18Z"  />
<glyph unicode="[" horiz-adv-x="317" d="M-43 -190L150 678H395L370 564H250L108 -76H228L202 -190H-43Z"  />
<glyph unicode="\" horiz-adv-x="362" d="M98 687H223L303 -20H178L98 687Z"  />
<glyph unicode="]" horiz-adv-x="317" d="M-78 -190L-53 -76H67L209 564H89L114 678H359L166 -190H-78Z"  />
<glyph unicode="^" horiz-adv-x="450" d="M330 333L298 548L171 333H38L255 667H384L450 333H330Z"  />
<glyph unicode="_" horiz-adv-x="564" d="M-91 -154L-65 -40H504L478 -154H-91Z"  />
<glyph unicode="`" horiz-adv-x="275" d="M224 556L101 700H256L344 556H224Z"  />
<glyph unicode="a" horiz-adv-x="596" d="M268 495Q310 495 347 480T408 432L419 483H599L492 0H312L324 51Q292 16 262 2T193 -12Q112 -12 63 39T13 189Q13 239 28 293T76 392T155 466T268 495ZM300 336Q257 336 228 305T199 227Q199 191 223 169T279 147Q319 147 352 180L380 303Q350 336 300 336Z"  />
<glyph unicode="b" horiz-adv-x="596" d="M327 -12Q285 -12 248 3T187 51L176 0H-4L143 667H323L271 432Q303 467 333 481T402 495Q483 495 532 444T582 294Q582 244 567 190T519 91T439 17T327 -12ZM295 147Q338 147 367 178T396 256Q396 292 372 314T316 336Q276 336 243 303L215 180Q245 147 295 147Z"  />
<glyph unicode="c" horiz-adv-x="502" d="M268 -12Q209 -12 162 5T83 52T33 123T15 212Q15 272 37 323T99 413T191 473T306 495Q389 495 441 466T518 395L384 292Q373 310 353 323T304 336Q257 336 227 305T197 224Q197 189 223 168T286 147Q311 147 332 158T367 186L463 67Q451 54 432 40T389 15T334 -4T268 -12Z"  />
<glyph unicode="d" horiz-adv-x="596" d="M268 495Q310 495 347 480T408 432L460 667H640L492 0H312L324 51Q292 16 262 2T193 -12Q112 -12 63 39T13 189Q13 239 28 293T76 392T155 466T268 495ZM300 336Q257 336 228 305T199 227Q199 191 223 169T279 147Q319 147 352 180L380 303Q350 336 300 336Z"  />
<glyph unicode="e" horiz-adv-x="543" d="M279 -12Q220 -12 172 2T89 45T35 114T15 208Q15 266 36 318T95 409T186 472T302 495Q347 495 388 482T460 441T509 372T528 275Q528 250 525 225T517 186H193V185Q193 182 198 173T216 153T247 134T292 125Q321 125 350 131T397 149L452 32Q415 9 369 -1T279 -12ZM369 300V303Q369 308 366 317T354 336T331 351T295 358Q277 358 263 352T237 337T219 318T210 300H369Z"  />
<glyph unicode="f" horiz-adv-x="371" d="M33 0L105 327H25L60 483H139L145 509Q153 543 169 574T211 627T272 663T354 677Q394 677 435 665T503 625L419 525Q401 544 371 544Q351 544 340 533T324 504L319 483H418L383 327H285L213 0H33Z"  />
<glyph unicode="g" horiz-adv-x="595" d="M212 -196Q137 -196 73 -176T-39 -110L62 9Q73 -5 90 -15T127 -33T168 -45T209 -49Q226 -49 243 -45T275 -30T302 1T322 53L328 78Q302 46 268 30T196 13Q161 13 129 23T71 55T30 115T14 205Q14 258 30 310T79 403T157 469T264 495Q302 495 341 480T406 432L418 483H598L502 53Q484 -25 452 -73T379 -149T295 -186T212 -196ZM284 172Q305 172 323 181T356 206L376 297Q349 336 291 336Q254 336 227 313T200 242Q200 212 223 192T284 172Z"  />
<glyph unicode="h" horiz-adv-x="608" d="M324 0L380 259Q382 266 383 275T385 291Q385 316 366 326T320 336Q296 336 276 324T242 299L177 0H-3L144 667H324L270 428Q283 440 298 452T331 473T372 489T422 495Q498 495 539 459T581 368Q581 360 580 348T576 329L504 0H324Z"  />
<glyph unicode="i" horiz-adv-x="280" d="M211 518Q171 518 146 543T120 604Q120 632 130 653T157 690T194 712T234 720Q274 720 299 695T325 634Q325 606 315 585T288 548T251 526T211 518ZM-4 0L103 483H283L176 0H-4Z"  />
<glyph unicode="j" horiz-adv-x="280" d="M-39 -196Q-94 -196 -130 -187T-192 -156L-122 -28Q-111 -40 -97 -44T-66 -49Q-16 -49 0 21L103 483H283L180 21Q170 -26 153 -65T110 -134T48 -179T-39 -196ZM211 518Q171 518 146 543T120 604Q120 632 130 653T157 690T194 712T234 720Q274 720 299 695T325 634Q325 606 315 585T288 548T251 526T211 518Z"  />
<glyph unicode="k" horiz-adv-x="557" d="M299 0L248 159L200 109L176 0H-4L143 667H323L246 321L388 483H611L396 263L515 0H299Z"  />
<glyph unicode="l" horiz-adv-x="280" d="M-4 0L143 667H323L176 0H-4Z"  />
<glyph unicode="m" horiz-adv-x="897" d="M613 0L669 254Q671 261 673 272T675 291Q675 314 659 325T619 336Q596 336 579 325T550 299L484 0H304L360 254Q362 261 364 273T367 291Q367 312 352 324T310 336Q287 336 270 324T242 299L176 0H-4L103 483H283L270 428Q280 438 293 450T324 472T363 488T412 495Q451 495 479 483T524 455T550 424T558 403V402Q572 419 588 435T624 465T668 487T721 495Q750 495 777 487T825 462T858 423T871 368Q871 357 869 345T866 329L793 0H613Z"  />
<glyph unicode="n" horiz-adv-x="607" d="M323 0L379 254Q381 261 383 271T385 291Q385 316 367 326T327 336Q298 336 277 324T242 299L176 0H-4L103 483H283L270 428Q283 440 298 452T331 473T372 489T422 495Q498 495 539 459T581 368Q581 362 580 349T576 329L503 0H323Z"  />
<glyph unicode="o" horiz-adv-x="577" d="M272 -12Q208 -12 160 5T79 53T31 125T14 213Q14 268 35 319T94 409T186 471T303 495Q367 495 415 478T496 430T544 358T561 270Q561 214 540 163T481 73T389 11T272 -12ZM279 147Q301 147 319 156T350 181T370 217T377 261Q377 297 356 316T296 336Q273 336 255 327T225 302T205 265T198 222Q198 186 219 167T279 147Z"  />
<glyph unicode="p" horiz-adv-x="595" d="M327 -12Q285 -12 248 3T187 51L135 -184H-45L103 483H283L271 432Q303 467 333 481T402 495Q483 495 532 444T582 294Q582 244 567 190T519 91T439 17T327 -12ZM295 147Q338 147 367 178T396 256Q396 292 372 314T316 336Q276 336 243 303L215 180Q245 147 295 147Z"  />
<glyph unicode="q" horiz-adv-x="595" d="M268 495Q310 495 347 480T408 432L419 483H599L451 -184H271L324 51Q292 16 262 2T193 -12Q112 -12 63 39T13 189Q13 239 28 293T76 392T155 466T268 495ZM300 336Q257 336 228 305T199 227Q199 191 223 169T279 147Q319 147 352 180L380 303Q350 336 300 336Z"  />
<glyph unicode="r" horiz-adv-x="390" d="M-4 0L103 483H283L271 430Q299 459 340 478T434 497L395 321Q388 323 373 326T341 329Q312 329 286 320T240 292L176 0H-4Z"  />
<glyph unicode="s" horiz-adv-x="490" d="M231 -12Q198 -12 164 -7T96 10T34 38T-20 77L72 190Q84 179 103 166T146 142T196 124T248 116Q262 116 270 121T279 134Q279 148 262 156T218 171T162 188T105 213T62 254T44 318Q44 351 58 383T99 440T166 480T259 495Q320 495 379 475T484 417L400 308Q391 317 376 327T343 346T303 360T261 366Q241 366 233 359T224 345Q224 335 241 329T285 315T341 299T398 273T441 231T459 167Q459 129 444 97T399 40T327 2T231 -12Z"  />
<glyph unicode="t" horiz-adv-x="382" d="M240 -12Q162 -12 112 17T62 110Q62 115 63 126T66 148L105 327H25L60 483H140L169 615H349L320 483H418L383 327H285L259 209Q257 202 257 196T256 186Q256 169 267 158T301 147Q308 147 316 148T326 152V8Q312 -2 289 -7T240 -12Z"  />
<glyph unicode="u" horiz-adv-x="606" d="M282 483L223 216Q220 202 220 193Q220 168 238 158T281 147Q308 147 328 159T363 185L429 483H609L502 0H322L335 55Q322 43 307 31T274 10T233 -6T183 -12Q107 -12 66 24T24 115Q24 121 25 134T29 154L102 483H282Z"  />
<glyph unicode="v" horiz-adv-x="535" d="M118 0L38 483H223L253 207L408 483H603L309 0H118Z"  />
<glyph unicode="w" horiz-adv-x="805" d="M427 0L407 270L270 0H74L41 483H221L226 217L370 483H531L556 217L679 483H870L623 0H427Z"  />
<glyph unicode="x" horiz-adv-x="521" d="M287 0L240 128L135 0H-66L146 248L51 483H243L283 370L373 483H575L374 248L479 0H287Z"  />
<glyph unicode="y" horiz-adv-x="535" d="M8 -30Q17 -34 31 -35T59 -37Q95 -37 108 -18L118 -2L38 483H223L253 207L408 483H603L272 -60Q248 -99 224 -125T173 -167T116 -189T49 -196Q23 -196 -2 -193T-49 -183L8 -30Z"  />
<glyph unicode="z" horiz-adv-x="486" d="M-21 0L8 132L216 327H51L86 483H502L474 357L260 156H433L399 0H-21Z"  />
<glyph unicode="{" horiz-adv-x="316" d="M159 -190Q125 -190 95 -179T43 -148T7 -101T-6 -40Q-6 -22 -2 -6L29 133Q30 138 30 142T31 151Q31 172 21 184T-9 197L12 291Q41 291 56 309T78 355L109 493Q131 590 190 634T335 678H395L370 564H310Q250 564 234 494L196 322Q188 290 173 265T130 231Q159 214 159 174Q159 166 158 158T155 140L123 -5Q122 -10 122 -14T121 -22Q121 -47 136 -61T175 -76H228L202 -190H159Z"  />
<glyph unicode="|" horiz-adv-x="222" d="M74 -20V687H188V-20H74Z"  />
<glyph unicode="}" horiz-adv-x="316" d="M156 678Q190 678 220 667T272 636T308 589T321 528Q321 510 317 494L286 355Q285 350 285 346T284 337Q284 316 294 304T324 291L303 197Q274 197 259 179T237 133L206 -5Q184 -102 125 -146T-20 -190H-80L-55 -76H5Q65 -76 81 -6L119 166Q127 198 142 223T185 257Q156 274 156 314Q156 322 157 330T160 348L192 493Q193 498 193 502T194 510Q194 535 179 549T140 564H87L113 678H156Z"  />
<glyph unicode="~" horiz-adv-x="518" d="M583 653Q574 609 559 564T521 483T465 424T384 401Q346 401 325 413T293 443T279 482T274 521T269 551T255 563Q243 563 231 547T209 507T190 455T177 401L62 414Q71 460 86 505T124 587T181 645T262 667Q300 667 321 655T353 625T367 586T372 546T377 516T391 504Q403 504 415 520T438 561T457 614T470 667L583 653Z"  />
<glyph unicode="&#xA0;" horiz-adv-x="255" />
<glyph unicode="&#xA1;" horiz-adv-x="283" d="M219 235L153 -184H-61L57 235H219ZM181 496Q222 496 250 467T278 397Q278 373 269 352T243 316T206 291T161 281Q120 281 92 310T64 380Q64 404 73 425T99 461T136 486T181 496Z"  />
<glyph unicode="&#xA2;" horiz-adv-x="502" d="M174 1Q98 24 57 80T15 212Q15 269 35 318T92 405T177 466T284 494L300 565H426L406 479Q446 465 473 443T518 395L384 292Q373 310 353 323T304 336Q257 336 227 305T197 224Q197 189 223 168T286 147Q311 147 332 158T367 186L463 67Q441 44 399 20T298 -10L278 -100H152L174 1Z"  />
<glyph unicode="&#xA3;" horiz-adv-x="581" d="M56 379H103Q96 397 92 416T87 459Q87 507 109 547T170 616T260 661T368 677Q417 677 460 668T537 641T596 594T633 529L452 455Q447 487 427 501T378 515Q345 515 326 491T306 434Q306 419 308 406T314 379H449L424 270H311Q300 239 281 216T242 184Q256 189 266 190T284 191Q304 191 319 187T349 179T378 170T411 166Q436 166 452 175T482 199L523 40Q506 18 475 3T394 -12Q362 -12 329 -6T265 9T208 23T164 30Q138 30 113 22T56 -7L19 125Q67 148 98 186T129 269V270H31L56 379Z"  />
<glyph unicode="&#xA4;" horiz-adv-x="648" d="M286 84Q231 90 188 110L90 30L-1 144L85 214Q70 247 67 285T72 362Q86 429 130 481L75 554L193 648L254 567Q286 578 321 582T395 582Q454 575 498 552L592 628L683 519L598 450Q612 417 615 380T611 304Q596 236 551 182L606 114L489 20L426 98Q394 87 359 83T286 84ZM320 240Q365 235 395 259T434 323Q442 362 424 391T361 425Q316 430 287 406T250 343Q241 303 258 274T320 240Z"  />
<glyph unicode="&#xA5;" horiz-adv-x="664" d="M178 0L201 107H-6L17 212H224L236 265H29L53 370H194L75 667H292L366 442L538 667H775L526 370H669L645 265H438L426 212H633L610 107H403L380 0H178Z"  />
<glyph unicode="&#xA6;" horiz-adv-x="222" d="M74 -20V296H188V-20H74ZM74 371V687H188V371H74Z"  />
<glyph unicode="&#xA7;" horiz-adv-x="500" d="M497 344Q497 318 489 294T465 251T431 216T390 192Q416 177 429 151T442 96Q442 57 425 24T379 -32T309 -68T220 -81Q142 -81 73 -59T-43 5L51 111Q82 79 128 60T220 41Q242 41 253 49T264 68Q264 83 247 93T204 111T148 130T92 156T49 197T32 260Q32 361 142 406Q116 421 102 448T87 508Q87 548 104 579T150 632T219 665T304 677Q385 677 440 658T534 605L446 507Q425 527 388 541T311 555Q283 555 274 546T264 526Q264 512 281 504T324 488T380 471T436 445T479 405T497 344ZM311 302Q311 322 297 334T267 350Q239 345 226 330T213 295Q213 277 228 265T265 247Q288 252 299 268T311 302Z"  />
<glyph unicode="&#xA8;" horiz-adv-x="318" d="M440 628Q440 608 432 591T409 559T377 537T339 529Q305 529 283 551T260 608Q260 627 268 645T291 677T323 699T361 707Q395 707 417 685T440 628ZM224 628Q224 608 216 591T193 559T161 537T123 529Q89 529 67 551T44 608Q44 627 52 645T75 677T107 699T145 707Q179 707 201 685T224 628Z"  />
<glyph unicode="&#xA9;" horiz-adv-x="778" d="M754 334Q754 263 727 200T653 90T543 16T408 -11Q337 -11 274 16T165 90T91 200T64 334Q64 406 91 468T164 578T274 652T408 679Q480 679 543 652T653 578T727 469T754 334ZM712 334Q712 397 688 452T623 548T526 613T408 637Q346 637 291 613T195 548T130 452T106 334Q106 272 130 217T195 120T291 55T408 31Q471 31 526 55T622 120T688 216T712 334ZM538 181Q511 158 473 142T395 125Q352 125 317 138T256 176T218 234T204 307Q204 358 223 401T274 475T348 525T435 543Q486 543 529 523T598 462L553 430Q535 462 504 479T432 496Q400 496 369 482T314 444T274 385T259 309Q259 282 268 257T294 214T337 184T396 172Q429 172 458 186T508 221L538 181Z"  />
<glyph unicode="&#xAA;" horiz-adv-x="417" d="M271 549Q239 549 219 524T199 466Q199 440 213 429T249 418Q259 418 271 422T292 435L314 536Q305 543 293 546T271 549ZM464 640L395 326H267L273 357Q253 335 234 327T191 318Q166 318 144 326T105 351T78 392T68 449Q68 492 81 529T118 592T171 633T235 648Q264 648 288 640T330 609L337 640H464Z"  />
<glyph unicode="&#xAB;" horiz-adv-x="615" d="M149 63L29 243L229 420H393L189 238L305 63H149ZM384 63L264 243L464 420H628L424 238L540 63H384Z"  />
<glyph unicode="&#xAC;" horiz-adv-x="527" d="M469 190H361L401 373H57L80 478H532L469 190Z"  />
<glyph unicode="&#xAD;" horiz-adv-x="300" d="M13 167L46 317H286L253 167H13Z"  />
<glyph unicode="&#xAE;" horiz-adv-x="494" d="M508 465Q508 421 492 383T446 315T378 270T295 253Q251 253 213 269T146 315T101 382T84 465Q84 509 100 548T146 615T213 660T296 677Q340 677 379 661T446 616T491 548T508 465ZM473 465Q473 502 459 534T421 591T365 628T295 642Q258 642 226 629T170 591T133 535T119 465Q119 429 132 397T170 340T226 302T295 288Q332 288 364 302T421 340T459 396T473 465ZM328 343L286 439H245L224 343H187L240 586H334Q369 586 388 567T407 522Q407 505 401 490T383 464T357 447T327 440L371 343H328ZM368 520Q368 534 359 544T325 555H271L252 471H314Q340 471 354 485T368 520Z"  />
<glyph unicode="&#xAF;" horiz-adv-x="363" d="M68 551L89 648H451L430 551H68Z"  />
<glyph unicode="&#xB0;" horiz-adv-x="331" d="M377 528Q377 497 365 470T333 423T286 392T228 380Q197 380 170 391T123 423T92 470T80 528Q80 559 91 586T123 633T170 665T228 677Q259 677 286 665T333 633T365 586T377 528ZM287 528Q287 552 270 569T228 587Q204 587 188 570T171 528Q171 504 187 488T227 471Q251 471 269 487T287 528Z"  />
<glyph unicode="&#xB1;" horiz-adv-x="510" d="M331 328L288 135H172L215 328H47L70 433H238L280 618H396L354 433H522L499 328H331ZM-25 0L-2 105H450L427 0H-25Z"  />
<glyph unicode="&#xB2;" horiz-adv-x="407" d="M81 421L103 520Q186 567 233 595T305 641T335 669T341 690Q341 705 328 714T290 723Q258 723 227 711T179 682L127 770Q143 784 164 794T207 812T253 823T296 827Q338 827 371 818T428 792T464 753T477 703Q477 681 468 661T437 619T382 575T296 525H442L419 421H81Z"  />
<glyph unicode="&#xB3;" horiz-adv-x="407" d="M448 531Q448 510 437 489T405 452T352 425T280 414Q214 414 161 434T82 488L161 570Q183 542 214 530T273 518Q299 518 308 526T318 546Q318 572 239 572Q231 572 219 572T202 571L224 673Q227 673 236 673T256 672T277 672T293 672Q322 672 333 678T345 697Q345 711 325 717T279 723Q253 723 227 716T179 692L138 774Q168 800 209 813T293 827Q382 827 431 797T480 716Q480 700 474 684T455 653T420 630T370 618Q405 609 426 588T448 531Z"  />
<glyph unicode="&#xB4;" horiz-adv-x="275" d="M189 556H67L219 700H376L189 556Z"  />
<glyph unicode="&#xB5;" horiz-adv-x="620" d="M134 -184H-46L106 483H286L225 215Q217 182 232 165T279 147Q309 147 329 159T364 185L429 483H609L542 178Q538 162 546 155T569 147Q580 147 589 150L566 -2Q549 -7 527 -9T485 -12Q425 -12 391 9T349 75Q324 37 289 13T212 -12Q202 -12 191 -10T175 -5L134 -184Z"  />
<glyph unicode="&#xB6;" horiz-adv-x="449" d="M270 -100L423 587H355L202 -100H122L216 323Q188 323 163 334T120 367T90 416T79 479Q79 514 93 548T134 608T195 651T273 667H520L350 -100H270Z"  />
<glyph unicode="&#xB7;" horiz-adv-x="283" d="M131 138Q90 138 62 167T34 237Q34 261 43 282T69 318T106 343T151 353Q192 353 220 324T248 254Q248 230 239 209T213 173T176 148T131 138Z"  />
<glyph unicode="&#xB8;" horiz-adv-x="237" d="M41 -200Q-3 -200 -37 -187T-89 -156L-46 -96Q-27 -112 -5 -122T40 -132Q56 -132 67 -127T78 -108Q78 -101 73 -96T56 -91Q42 -91 32 -103L-20 -69L28 11H108L70 -47Q83 -38 99 -38Q124 -38 141 -55T159 -103Q159 -126 150 -144T124 -174T87 -193T41 -200Z"  />
<glyph unicode="&#xB9;" horiz-adv-x="336" d="M183 421L233 650L150 584L92 663L290 821H403L315 421H183Z"  />
<glyph unicode="&#xBA;" horiz-adv-x="405" d="M244 318Q203 318 171 329T117 361T82 408T70 467Q70 507 86 540T131 598T194 635T267 648Q308 648 340 637T394 605T429 558T441 499Q441 458 425 425T380 368T317 331T244 318ZM247 418Q265 418 277 426T296 446T307 473T311 501Q311 546 264 546Q246 546 234 538T214 518T203 491T200 463Q200 418 247 418Z"  />
<glyph unicode="&#xBB;" horiz-adv-x="615" d="M233 420L353 240L153 63H-11L193 245L77 420H233ZM468 420L588 240L388 63H224L428 245L312 420H468Z"  />
<glyph unicode="&#xBC;" horiz-adv-x="897" d="M149 267L199 496L116 430L58 509L256 667H369L281 267H149ZM798 71L783 0H652L667 71H470L490 158L686 400H871L821 173H868L845 71H798ZM715 287L623 173H690L715 287ZM211 0H114L687 667H785L211 0Z"  />
<glyph unicode="&#xBD;" horiz-adv-x="927" d="M149 267L199 496L116 430L58 509L256 667H369L281 267H149ZM508 0L530 99Q613 146 660 174T732 220T762 248T768 269Q768 284 755 293T717 302Q685 302 654 290T606 261L554 349Q570 363 591 373T634 391T680 402T723 406Q765 406 798 397T855 371T891 332T904 282Q904 260 895 240T864 198T809 154T723 104H869L846 0H508ZM211 0H114L687 667H785L211 0Z"  />
<glyph unicode="&#xBE;" horiz-adv-x="964" d="M865 71L850 0H719L734 71H537L557 158L753 400H938L888 173H935L912 71H865ZM782 287L690 173H757L782 287ZM278 0H181L754 667H852L278 0ZM414 377Q414 356 403 335T371 298T318 271T246 260Q180 260 127 280T48 334L127 416Q149 388 180 376T239 364Q265 364 274 372T284 392Q284 418 205 418Q197 418 185 418T168 417L190 519Q193 519 202 519T222 518T243 518T259 518Q288 518 299 524T311 543Q311 557 291 563T245 569Q219 569 193 562T145 538L104 620Q134 646 175 659T259 673Q348 673 397 643T446 562Q446 546 440 530T421 499T386 476T336 464Q371 455 392 434T414 377Z"  />
<glyph unicode="&#xBF;" horiz-adv-x="401" d="M301 258Q306 244 308 227T311 189Q311 152 300 126T272 83T236 53T199 33T171 17T160 1Q160 -9 169 -14T202 -19Q222 -19 246 -12T291 12L374 -127Q325 -164 272 -179T169 -195Q126 -195 86 -186T15 -158T-34 -111T-53 -46Q-53 -2 -39 27T-3 76T43 110T90 137T125 166T140 205Q140 207 139 212T135 222L301 258ZM264 495Q305 495 333 466T361 396Q361 372 352 351T326 315T289 290T244 280Q203 280 175 309T147 379Q147 403 156 424T182 460T219 485T264 495Z"  />
<glyph unicode="&#xC0;" horiz-adv-x="710" d="M455 0L448 78H208L167 0H-72L321 667H575L674 0H455ZM414 469L301 254H433L414 469ZM411 723L288 867H443L531 723H411Z"  />
<glyph unicode="&#xC1;" horiz-adv-x="710" d="M455 0L448 78H208L167 0H-72L321 667H575L674 0H455ZM414 469L301 254H433L414 469ZM512 723H390L542 867H699L512 723Z"  />
<glyph unicode="&#xC2;" horiz-adv-x="710" d="M527 723L479 796L402 723H295L415 867H571L630 723H527ZM455 0L448 78H208L167 0H-72L321 667H575L674 0H455ZM414 469L301 254H433L414 469Z"  />
<glyph unicode="&#xC3;" horiz-adv-x="710" d="M455 0L448 78H208L167 0H-72L321 667H575L674 0H455ZM414 469L301 254H433L414 469ZM533 721Q508 721 491 727T461 742T436 757T410 764Q389 764 382 727H292Q306 796 333 828T419 861Q444 861 461 855T492 840T517 825T543 818Q562 818 571 855H661Q646 786 619 754T533 721Z"  />
<glyph unicode="&#xC4;" horiz-adv-x="710" d="M673 795Q673 775 665 758T642 726T610 704T572 696Q538 696 516 718T493 775Q493 794 501 812T524 844T556 866T594 874Q628 874 650 852T673 795ZM457 795Q457 775 449 758T426 726T394 704T356 696Q322 696 300 718T277 775Q277 794 285 812T308 844T340 866T378 874Q412 874 434 852T457 795ZM455 0L448 78H208L167 0H-72L321 667H575L674 0H455ZM414 469L301 254H433L414 469Z"  />
<glyph unicode="&#xC5;" horiz-adv-x="710" d="M455 0L448 78H208L167 0H-72L321 667H575L674 0H455ZM414 469L301 254H433L414 469ZM466 686Q420 686 392 714T364 788Q364 813 374 835T400 873T439 900T486 910Q532 910 560 882T588 808Q588 783 578 761T552 723T513 696T466 686ZM474 764Q488 764 499 775T510 800Q510 814 501 823T478 832Q464 832 453 821T442 796Q442 782 451 773T474 764Z"  />
<glyph unicode="&#xC6;" horiz-adv-x="989" d="M399 0L416 78H214L156 0H-79L463 667H1052L1013 491H709L695 425H992L953 249H656L640 176H944L905 0H399ZM500 460L347 254H455L500 460Z"  />
<glyph unicode="&#xC7;" horiz-adv-x="697" d="M301 -200Q257 -200 223 -187T171 -156L214 -96Q233 -112 255 -122T300 -132Q316 -132 327 -127T338 -108Q338 -101 333 -96T316 -91Q302 -91 292 -103L240 -69L280 -1Q226 11 180 36T100 100T47 186T28 294Q28 381 59 451T145 572T273 650T429 678Q502 678 557 659T650 608T713 537T749 457L555 396Q546 443 510 471T420 500Q379 500 346 484T288 442T251 380T237 308Q237 279 247 254T277 209T324 178T387 166Q406 166 426 172T465 188T498 213T522 243L680 141Q649 96 611 67T531 20T450 -5T376 -12Q370 -12 365 -12T353 -11L330 -47Q343 -38 359 -38Q384 -38 401 -55T419 -103Q419 -126 410 -144T384 -174T347 -193T301 -200Z"  />
<glyph unicode="&#xC8;" horiz-adv-x="596" d="M0 0L147 667H653L614 491H310L296 425H593L554 249H257L241 176H545L506 0H0ZM361 723L238 867H393L481 723H361Z"  />
<glyph unicode="&#xC9;" horiz-adv-x="596" d="M463 723H341L493 867H650L463 723ZM0 0L147 667H653L614 491H310L296 425H593L554 249H257L241 176H545L506 0H0Z"  />
<glyph unicode="&#xCA;" horiz-adv-x="596" d="M476 723L428 796L351 723H244L364 867H520L579 723H476ZM0 0L147 667H653L614 491H310L296 425H593L554 249H257L241 176H545L506 0H0Z"  />
<glyph unicode="&#xCB;" horiz-adv-x="596" d="M624 795Q624 775 616 758T593 726T561 704T523 696Q489 696 467 718T444 775Q444 794 452 812T475 844T507 866T545 874Q579 874 601 852T624 795ZM408 795Q408 775 400 758T377 726T345 704T307 696Q273 696 251 718T228 775Q228 794 236 812T259 844T291 866T329 874Q363 874 385 852T408 795ZM0 0L147 667H653L614 491H310L296 425H593L554 249H257L241 176H545L506 0H0Z"  />
<glyph unicode="&#xCC;" horiz-adv-x="310" d="M0 0L147 667H349L202 0H0ZM212 723L89 867H244L332 723H212Z"  />
<glyph unicode="&#xCD;" horiz-adv-x="310" d="M0 0L147 667H349L202 0H0ZM310 723H188L340 867H497L310 723Z"  />
<glyph unicode="&#xCE;" horiz-adv-x="310" d="M324 723L276 796L199 723H92L212 867H368L427 723H324ZM0 0L147 667H349L202 0H0Z"  />
<glyph unicode="&#xCF;" horiz-adv-x="310" d="M472 795Q472 775 464 758T441 726T409 704T371 696Q337 696 315 718T292 775Q292 794 300 812T323 844T355 866T393 874Q427 874 449 852T472 795ZM256 795Q256 775 248 758T225 726T193 704T155 696Q121 696 99 718T76 775Q76 794 84 812T107 844T139 866T177 874Q211 874 233 852T256 795ZM0 0L147 667H349L202 0H0Z"  />
<glyph unicode="&#xD0;" horiz-adv-x="757" d="M21 0L77 254H9L44 413H112L168 667H461Q516 667 570 647T667 590T736 499T763 379Q763 316 741 249T667 126T530 36T318 0H21ZM358 176Q404 176 440 191T502 232T541 292T554 364Q554 391 545 414T518 454T477 481T424 491H331L314 413H442L407 254H279L262 176H358Z"  />
<glyph unicode="&#xD1;" horiz-adv-x="750" d="M551 721Q526 721 509 727T479 742T454 757T428 764Q407 764 400 727H310Q324 796 351 828T437 861Q462 861 479 855T510 840T535 825T561 818Q580 818 589 855H679Q664 786 637 754T551 721ZM448 0L278 346L202 0H0L147 667H355L515 343L587 667H789L642 0H448Z"  />
<glyph unicode="&#xD2;" horiz-adv-x="766" d="M438 723L315 867H470L558 723H438ZM376 -12Q302 -12 238 10T128 73T55 170T28 294Q28 374 58 444T141 566T268 648T429 678Q503 678 566 656T676 594T749 497T776 374Q776 294 746 224T663 102T537 19T376 -12ZM387 166Q427 166 460 181T517 223T554 285T567 358Q567 389 556 415T526 460T479 489T417 500Q377 500 344 485T287 443T250 381T237 308Q237 277 248 251T278 206T325 177T387 166Z"  />
<glyph unicode="&#xD3;" horiz-adv-x="766" d="M537 723H415L567 867H724L537 723ZM376 -12Q302 -12 238 10T128 73T55 170T28 294Q28 374 58 444T141 566T268 648T429 678Q503 678 566 656T676 594T749 497T776 374Q776 294 746 224T663 102T537 19T376 -12ZM387 166Q427 166 460 181T517 223T554 285T567 358Q567 389 556 415T526 460T479 489T417 500Q377 500 344 485T287 443T250 381T237 308Q237 277 248 251T278 206T325 177T387 166Z"  />
<glyph unicode="&#xD4;" horiz-adv-x="766" d="M553 723L505 796L428 723H321L441 867H597L656 723H553ZM376 -12Q302 -12 238 10T128 73T55 170T28 294Q28 374 58 444T141 566T268 648T429 678Q503 678 566 656T676 594T749 497T776 374Q776 294 746 224T663 102T537 19T376 -12ZM387 166Q427 166 460 181T517 223T554 285T567 358Q567 389 556 415T526 460T479 489T417 500Q377 500 344 485T287 443T250 381T237 308Q237 277 248 251T278 206T325 177T387 166Z"  />
<glyph unicode="&#xD5;" horiz-adv-x="766" d="M376 -12Q302 -12 238 10T128 73T55 170T28 294Q28 374 58 444T141 566T268 648T429 678Q503 678 566 656T676 594T749 497T776 374Q776 294 746 224T663 102T537 19T376 -12ZM387 166Q427 166 460 181T517 223T554 285T567 358Q567 389 556 415T526 460T479 489T417 500Q377 500 344 485T287 443T250 381T237 308Q237 277 248 251T278 206T325 177T387 166ZM561 721Q536 721 519 727T489 742T464 757T438 764Q417 764 410 727H320Q334 796 361 828T447 861Q472 861 489 855T520 840T545 825T571 818Q590 818 599 855H689Q674 786 647 754T561 721Z"  />
<glyph unicode="&#xD6;" horiz-adv-x="766" d="M700 795Q700 775 692 758T669 726T637 704T599 696Q565 696 543 718T520 775Q520 794 528 812T551 844T583 866T621 874Q655 874 677 852T700 795ZM484 795Q484 775 476 758T453 726T421 704T383 696Q349 696 327 718T304 775Q304 794 312 812T335 844T367 866T405 874Q439 874 461 852T484 795ZM376 -12Q302 -12 238 10T128 73T55 170T28 294Q28 374 58 444T141 566T268 648T429 678Q503 678 566 656T676 594T749 497T776 374Q776 294 746 224T663 102T537 19T376 -12ZM387 166Q427 166 460 181T517 223T554 285T567 358Q567 389 556 415T526 460T479 489T417 500Q377 500 344 485T287 443T250 381T237 308Q237 277 248 251T278 206T325 177T387 166Z"  />
<glyph unicode="&#xD7;" horiz-adv-x="510" d="M265 259L99 123L33 203L202 341L100 471L184 539L284 409L451 545L516 465L349 327L449 197L366 129L265 259Z"  />
<glyph unicode="&#xD8;" horiz-adv-x="766" d="M376 -12Q312 -12 257 4T156 51L102 0H-36L87 115Q58 152 43 197T28 294Q28 374 58 444T141 566T268 648T429 678Q547 678 633 624L679 667H817L706 563Q739 525 757 478T776 374Q776 294 746 224T663 102T537 19T376 -12ZM387 166Q427 166 460 181T517 223T554 285T567 358Q567 391 553 421L303 187Q320 177 341 172T387 166ZM237 308Q237 282 244 261L485 486Q454 500 417 500Q377 500 344 485T287 443T250 381T237 308Z"  />
<glyph unicode="&#xD9;" horiz-adv-x="767" d="M376 -12Q294 -12 234 6T134 56T75 133T55 232Q55 238 56 252T60 274L147 667H352L266 279Q264 269 264 255Q264 239 271 223T292 193T326 172T376 164Q438 164 471 197T515 279L601 667H806L719 275Q706 215 681 163T615 71T516 10T376 -12ZM438 723L315 867H470L558 723H438Z"  />
<glyph unicode="&#xDA;" horiz-adv-x="767" d="M536 723H414L566 867H723L536 723ZM376 -12Q294 -12 234 6T134 56T75 133T55 232Q55 238 56 252T60 274L147 667H352L266 279Q264 269 264 255Q264 239 271 223T292 193T326 172T376 164Q438 164 471 197T515 279L601 667H806L719 275Q706 215 681 163T615 71T516 10T376 -12Z"  />
<glyph unicode="&#xDB;" horiz-adv-x="767" d="M551 723L503 796L426 723H319L439 867H595L654 723H551ZM376 -12Q294 -12 234 6T134 56T75 133T55 232Q55 238 56 252T60 274L147 667H352L266 279Q264 269 264 255Q264 239 271 223T292 193T326 172T376 164Q438 164 471 197T515 279L601 667H806L719 275Q706 215 681 163T615 71T516 10T376 -12Z"  />
<glyph unicode="&#xDC;" horiz-adv-x="767" d="M700 795Q700 775 692 758T669 726T637 704T599 696Q565 696 543 718T520 775Q520 794 528 812T551 844T583 866T621 874Q655 874 677 852T700 795ZM484 795Q484 775 476 758T453 726T421 704T383 696Q349 696 327 718T304 775Q304 794 312 812T335 844T367 866T405 874Q439 874 461 852T484 795ZM376 -12Q294 -12 234 6T134 56T75 133T55 232Q55 238 56 252T60 274L147 667H352L266 279Q264 269 264 255Q264 239 271 223T292 193T326 172T376 164Q438 164 471 197T515 279L601 667H806L719 275Q706 215 681 163T615 71T516 10T376 -12Z"  />
<glyph unicode="&#xDD;" horiz-adv-x="664" d="M178 0L236 265L75 667H292L366 442L538 667H775L438 265L380 0H178ZM488 723H366L518 867H675L488 723Z"  />
<glyph unicode="&#xDE;" horiz-adv-x="662" d="M0 0L147 667H349L328 571H478Q521 571 557 555T619 512T659 449T674 374Q674 331 659 285T608 201T517 139T380 114H227L202 0H0ZM389 290Q422 290 443 307T465 351Q465 373 451 384T410 395H289L266 290H389Z"  />
<glyph unicode="&#xDF;" horiz-adv-x="688" d="M661 167Q661 130 644 98T597 41T527 2T441 -12Q375 -12 319 7T217 72L308 183Q334 155 367 139T444 122Q458 122 469 128T481 142Q481 153 467 159T431 172T384 186T337 207T301 242T286 298Q286 350 307 381T355 431T403 464T425 494Q425 511 409 522T366 533Q345 533 330 526T304 508T287 482T276 451L177 0H-3L96 451Q106 496 127 537T183 609T268 658T387 677Q433 677 474 666T547 634T598 584T617 519Q617 485 606 460T577 417T541 386T504 363T476 345T464 327Q464 320 478 316T515 305T562 291T610 267T646 227T661 167Z"  />
<glyph unicode="&#xE0;" horiz-adv-x="596" d="M268 495Q310 495 347 480T408 432L419 483H599L492 0H312L324 51Q292 16 262 2T193 -12Q112 -12 63 39T13 189Q13 239 28 293T76 392T155 466T268 495ZM300 336Q257 336 228 305T199 227Q199 191 223 169T279 147Q319 147 352 180L380 303Q350 336 300 336ZM312 556L189 700H344L432 556H312Z"  />
<glyph unicode="&#xE1;" horiz-adv-x="596" d="M268 495Q310 495 347 480T408 432L419 483H599L492 0H312L324 51Q292 16 262 2T193 -12Q112 -12 63 39T13 189Q13 239 28 293T76 392T155 466T268 495ZM300 336Q257 336 228 305T199 227Q199 191 223 169T279 147Q319 147 352 180L380 303Q350 336 300 336ZM412 556H290L442 700H599L412 556Z"  />
<glyph unicode="&#xE2;" horiz-adv-x="596" d="M268 495Q310 495 347 480T408 432L419 483H599L492 0H312L324 51Q292 16 262 2T193 -12Q112 -12 63 39T13 189Q13 239 28 293T76 392T155 466T268 495ZM300 336Q257 336 228 305T199 227Q199 191 223 169T279 147Q319 147 352 180L380 303Q350 336 300 336ZM425 556L377 629L300 556H193L313 700H469L528 556H425Z"  />
<glyph unicode="&#xE3;" horiz-adv-x="596" d="M268 495Q310 495 347 480T408 432L419 483H599L492 0H312L324 51Q292 16 262 2T193 -12Q112 -12 63 39T13 189Q13 239 28 293T76 392T155 466T268 495ZM300 336Q257 336 228 305T199 227Q199 191 223 169T279 147Q319 147 352 180L380 303Q350 336 300 336ZM434 554Q409 554 392 560T362 575T337 590T311 597Q290 597 283 560H193Q207 629 234 661T320 694Q345 694 362 688T393 673T418 658T444 651Q463 651 472 688H562Q547 619 520 587T434 554Z"  />
<glyph unicode="&#xE4;" horiz-adv-x="596" d="M268 495Q310 495 347 480T408 432L419 483H599L492 0H312L324 51Q292 16 262 2T193 -12Q112 -12 63 39T13 189Q13 239 28 293T76 392T155 466T268 495ZM300 336Q257 336 228 305T199 227Q199 191 223 169T279 147Q319 147 352 180L380 303Q350 336 300 336ZM572 628Q572 608 564 591T541 559T509 537T471 529Q437 529 415 551T392 608Q392 627 400 645T423 677T455 699T493 707Q527 707 549 685T572 628ZM356 628Q356 608 348 591T325 559T293 537T255 529Q221 529 199 551T176 608Q176 627 184 645T207 677T239 699T277 707Q311 707 333 685T356 628Z"  />
<glyph unicode="&#xE5;" horiz-adv-x="596" d="M268 495Q310 495 347 480T408 432L419 483H599L492 0H312L324 51Q292 16 262 2T193 -12Q112 -12 63 39T13 189Q13 239 28 293T76 392T155 466T268 495ZM300 336Q257 336 228 305T199 227Q199 191 223 169T279 147Q319 147 352 180L380 303Q350 336 300 336ZM367 514Q321 514 293 542T265 616Q265 641 275 663T301 701T340 728T387 738Q433 738 461 710T489 636Q489 611 479 589T453 551T414 524T367 514ZM375 592Q389 592 400 603T411 628Q411 642 402 651T379 660Q365 660 354 649T343 624Q343 610 352 601T375 592Z"  />
<glyph unicode="&#xE6;" horiz-adv-x="890" d="M300 336Q257 336 228 305T199 227Q199 191 223 169T279 147Q319 147 352 180L380 303Q350 336 300 336ZM492 0H312L324 51Q292 16 262 2T193 -12Q112 -12 63 39T13 189Q13 239 28 293T76 392T155 466T268 495Q310 495 347 480T408 432L419 483H599L591 449Q616 470 645 482T709 495Q786 495 830 447T875 289Q875 261 871 231T863 186H539V185Q539 182 545 173T566 155T600 137T650 129Q676 129 702 135T745 153L799 32Q762 9 722 -1T653 -12Q596 -12 559 6T503 50L492 0ZM717 300V301Q717 307 714 317T701 336T678 351T642 358Q624 358 610 352T585 337T568 318T559 300H717Z"  />
<glyph unicode="&#xE7;" horiz-adv-x="502" d="M215 -200Q171 -200 137 -187T85 -156L128 -96Q147 -112 169 -122T214 -132Q230 -132 241 -127T252 -108Q252 -101 247 -96T230 -91Q216 -91 206 -103L154 -69L193 -4Q108 15 62 73T15 212Q15 272 37 323T99 413T191 473T306 495Q389 495 441 466T518 395L384 292Q373 310 353 323T304 336Q257 336 227 305T197 224Q197 189 223 168T286 147Q311 147 332 158T367 186L463 67Q451 54 432 40T389 15T334 -4T268 -12H267L244 -47Q257 -38 273 -38Q298 -38 315 -55T333 -103Q333 -126 324 -144T298 -174T261 -193T215 -200Z"  />
<glyph unicode="&#xE8;" horiz-adv-x="543" d="M279 -12Q220 -12 172 2T89 45T35 114T15 208Q15 266 36 318T95 409T186 472T302 495Q347 495 388 482T460 441T509 372T528 275Q528 250 525 225T517 186H193V185Q193 182 198 173T216 153T247 134T292 125Q321 125 350 131T397 149L452 32Q415 9 369 -1T279 -12ZM369 300V303Q369 308 366 317T354 336T331 351T295 358Q277 358 263 352T237 337T219 318T210 300H369ZM310 556L187 700H342L430 556H310Z"  />
<glyph unicode="&#xE9;" horiz-adv-x="543" d="M409 556H287L439 700H596L409 556ZM279 -12Q220 -12 172 2T89 45T35 114T15 208Q15 266 36 318T95 409T186 472T302 495Q347 495 388 482T460 441T509 372T528 275Q528 250 525 225T517 186H193V185Q193 182 198 173T216 153T247 134T292 125Q321 125 350 131T397 149L452 32Q415 9 369 -1T279 -12ZM369 300V303Q369 308 366 317T354 336T331 351T295 358Q277 358 263 352T237 337T219 318T210 300H369Z"  />
<glyph unicode="&#xEA;" horiz-adv-x="543" d="M424 556L376 629L299 556H192L312 700H468L527 556H424ZM279 -12Q220 -12 172 2T89 45T35 114T15 208Q15 266 36 318T95 409T186 472T302 495Q347 495 388 482T460 441T509 372T528 275Q528 250 525 225T517 186H193V185Q193 182 198 173T216 153T247 134T292 125Q321 125 350 131T397 149L452 32Q415 9 369 -1T279 -12ZM369 300V303Q369 308 366 317T354 336T331 351T295 358Q277 358 263 352T237 337T219 318T210 300H369Z"  />
<glyph unicode="&#xEB;" horiz-adv-x="543" d="M571 628Q571 608 563 591T540 559T508 537T470 529Q436 529 414 551T391 608Q391 627 399 645T422 677T454 699T492 707Q526 707 548 685T571 628ZM355 628Q355 608 347 591T324 559T292 537T254 529Q220 529 198 551T175 608Q175 627 183 645T206 677T238 699T276 707Q310 707 332 685T355 628ZM279 -12Q220 -12 172 2T89 45T35 114T15 208Q15 266 36 318T95 409T186 472T302 495Q347 495 388 482T460 441T509 372T528 275Q528 250 525 225T517 186H193V185Q193 182 198 173T216 153T247 134T292 125Q321 125 350 131T397 149L452 32Q415 9 369 -1T279 -12ZM369 300V303Q369 308 366 317T354 336T331 351T295 358Q277 358 263 352T237 337T219 318T210 300H369Z"  />
<glyph unicode="&#xEC;" horiz-adv-x="280" d="M-4 0L103 483H283L176 0H-4ZM162 556L39 700H194L282 556H162Z"  />
<glyph unicode="&#xED;" horiz-adv-x="280" d="M257 556H135L287 700H444L257 556ZM-4 0L103 483H283L176 0H-4Z"  />
<glyph unicode="&#xEE;" horiz-adv-x="280" d="M275 556L227 629L150 556H43L163 700H319L378 556H275ZM-4 0L103 483H283L176 0H-4Z"  />
<glyph unicode="&#xEF;" horiz-adv-x="280" d="M423 628Q423 608 415 591T392 559T360 537T322 529Q288 529 266 551T243 608Q243 627 251 645T274 677T306 699T344 707Q378 707 400 685T423 628ZM207 628Q207 608 199 591T176 559T144 537T106 529Q72 529 50 551T27 608Q27 627 35 645T58 677T90 699T128 707Q162 707 184 685T207 628ZM-4 0L103 483H283L176 0H-4Z"  />
<glyph unicode="&#xF0;" horiz-adv-x="577" d="M112 536L223 568L181 601L306 731Q340 704 369 679T423 627L528 658L545 582L479 562Q527 499 549 437T571 309Q571 245 552 187T495 85T402 14T275 -12Q215 -12 166 2T83 45T29 112T10 202Q10 252 28 295T77 371T152 422T246 441Q311 441 349 411T408 330Q404 370 371 416T292 507L128 458L112 536ZM278 147Q320 147 344 167T369 222Q369 249 346 266T281 283Q239 283 217 261T194 208Q194 147 278 147Z"  />
<glyph unicode="&#xF1;" horiz-adv-x="607" d="M323 0L379 254Q381 261 383 271T385 291Q385 316 367 326T327 336Q298 336 277 324T242 299L176 0H-4L103 483H283L270 428Q283 440 298 452T331 473T372 489T422 495Q498 495 539 459T581 368Q581 362 580 349T576 329L503 0H323ZM445 554Q420 554 403 560T373 575T348 590T322 597Q301 597 294 560H204Q218 629 245 661T331 694Q356 694 373 688T404 673T429 658T455 651Q474 651 483 688H573Q558 619 531 587T445 554Z"  />
<glyph unicode="&#xF2;" horiz-adv-x="577" d="M272 -12Q208 -12 160 5T79 53T31 125T14 213Q14 268 35 319T94 409T186 471T303 495Q367 495 415 478T496 430T544 358T561 270Q561 214 540 163T481 73T389 11T272 -12ZM279 147Q301 147 319 156T350 181T370 217T377 261Q377 297 356 316T296 336Q273 336 255 327T225 302T205 265T198 222Q198 186 219 167T279 147ZM310 556L187 700H342L430 556H310Z"  />
<glyph unicode="&#xF3;" horiz-adv-x="577" d="M407 556H285L437 700H594L407 556ZM272 -12Q208 -12 160 5T79 53T31 125T14 213Q14 268 35 319T94 409T186 471T303 495Q367 495 415 478T496 430T544 358T561 270Q561 214 540 163T481 73T389 11T272 -12ZM279 147Q301 147 319 156T350 181T370 217T377 261Q377 297 356 316T296 336Q273 336 255 327T225 302T205 265T198 222Q198 186 219 167T279 147Z"  />
<glyph unicode="&#xF4;" horiz-adv-x="577" d="M423 556L375 629L298 556H191L311 700H467L526 556H423ZM272 -12Q208 -12 160 5T79 53T31 125T14 213Q14 268 35 319T94 409T186 471T303 495Q367 495 415 478T496 430T544 358T561 270Q561 214 540 163T481 73T389 11T272 -12ZM279 147Q301 147 319 156T350 181T370 217T377 261Q377 297 356 316T296 336Q273 336 255 327T225 302T205 265T198 222Q198 186 219 167T279 147Z"  />
<glyph unicode="&#xF5;" horiz-adv-x="577" d="M272 -12Q208 -12 160 5T79 53T31 125T14 213Q14 268 35 319T94 409T186 471T303 495Q367 495 415 478T496 430T544 358T561 270Q561 214 540 163T481 73T389 11T272 -12ZM279 147Q301 147 319 156T350 181T370 217T377 261Q377 297 356 316T296 336Q273 336 255 327T225 302T205 265T198 222Q198 186 219 167T279 147ZM430 554Q405 554 388 560T358 575T333 590T307 597Q286 597 279 560H189Q203 629 230 661T316 694Q341 694 358 688T389 673T414 658T440 651Q459 651 468 688H558Q543 619 516 587T430 554Z"  />
<glyph unicode="&#xF6;" horiz-adv-x="577" d="M569 628Q569 608 561 591T538 559T506 537T468 529Q434 529 412 551T389 608Q389 627 397 645T420 677T452 699T490 707Q524 707 546 685T569 628ZM353 628Q353 608 345 591T322 559T290 537T252 529Q218 529 196 551T173 608Q173 627 181 645T204 677T236 699T274 707Q308 707 330 685T353 628ZM272 -12Q208 -12 160 5T79 53T31 125T14 213Q14 268 35 319T94 409T186 471T303 495Q367 495 415 478T496 430T544 358T561 270Q561 214 540 163T481 73T389 11T272 -12ZM279 147Q301 147 319 156T350 181T370 217T377 261Q377 297 356 316T296 336Q273 336 255 327T225 302T205 265T198 222Q198 186 219 167T279 147Z"  />
<glyph unicode="&#xF7;" horiz-adv-x="511" d="M38 285L61 390H514L491 285H38ZM231 94Q202 94 182 114T162 164Q162 180 168 195T186 221T213 239T245 246Q274 246 294 226T314 176Q314 159 307 144T289 118T263 101T231 94ZM305 428Q276 428 256 448T236 498Q236 514 242 529T260 555T287 573T319 580Q348 580 368 560T388 510Q388 493 381 478T363 452T337 435T305 428Z"  />
<glyph unicode="&#xF8;" horiz-adv-x="577" d="M-40 0L53 83Q14 137 14 213Q14 268 35 319T94 409T186 471T303 495Q355 495 396 484T469 451L505 483H616L522 400Q561 344 561 270Q561 214 540 163T481 73T389 11T272 -12Q219 -12 178 -1T105 32L68 0H-40ZM279 147Q301 147 319 156T350 181T370 217T377 261Q377 268 376 271L242 153Q257 147 279 147ZM198 211L332 330Q317 336 296 336Q273 336 255 327T225 302T205 265T198 222V211Z"  />
<glyph unicode="&#xF9;" horiz-adv-x="606" d="M282 483L223 216Q220 202 220 193Q220 168 238 158T281 147Q308 147 328 159T363 185L429 483H609L502 0H322L335 55Q322 43 307 31T274 10T233 -6T183 -12Q107 -12 66 24T24 115Q24 121 25 134T29 154L102 483H282ZM322 556L199 700H354L442 556H322Z"  />
<glyph unicode="&#xFA;" horiz-adv-x="606" d="M421 556H299L451 700H608L421 556ZM282 483L223 216Q220 202 220 193Q220 168 238 158T281 147Q308 147 328 159T363 185L429 483H609L502 0H322L335 55Q322 43 307 31T274 10T233 -6T183 -12Q107 -12 66 24T24 115Q24 121 25 134T29 154L102 483H282Z"  />
<glyph unicode="&#xFB;" horiz-adv-x="606" d="M435 556L387 629L310 556H203L323 700H479L538 556H435ZM282 483L223 216Q220 202 220 193Q220 168 238 158T281 147Q308 147 328 159T363 185L429 483H609L502 0H322L335 55Q322 43 307 31T274 10T233 -6T183 -12Q107 -12 66 24T24 115Q24 121 25 134T29 154L102 483H282Z"  />
<glyph unicode="&#xFC;" horiz-adv-x="606" d="M583 628Q583 608 575 591T552 559T520 537T482 529Q448 529 426 551T403 608Q403 627 411 645T434 677T466 699T504 707Q538 707 560 685T583 628ZM367 628Q367 608 359 591T336 559T304 537T266 529Q232 529 210 551T187 608Q187 627 195 645T218 677T250 699T288 707Q322 707 344 685T367 628ZM282 483L223 216Q220 202 220 193Q220 168 238 158T281 147Q308 147 328 159T363 185L429 483H609L502 0H322L335 55Q322 43 307 31T274 10T233 -6T183 -12Q107 -12 66 24T24 115Q24 121 25 134T29 154L102 483H282Z"  />
<glyph unicode="&#xFD;" horiz-adv-x="535" d="M8 -30Q17 -34 31 -35T59 -37Q95 -37 108 -18L118 -2L38 483H223L253 207L408 483H603L272 -60Q248 -99 224 -125T173 -167T116 -189T49 -196Q23 -196 -2 -193T-49 -183L8 -30ZM379 556H257L409 700H566L379 556Z"  />
<glyph unicode="&#xFE;" horiz-adv-x="595" d="M327 -12Q285 -12 248 3T187 51L135 -184H-45L143 667H323L271 432Q303 467 333 481T402 495Q483 495 532 444T582 294Q582 244 567 190T519 91T439 17T327 -12ZM295 147Q338 147 367 178T396 256Q396 292 372 314T316 336Q276 336 243 303L215 180Q245 147 295 147Z"  />
<glyph unicode="&#xFF;" horiz-adv-x="535" d="M8 -30Q17 -34 31 -35T59 -37Q95 -37 108 -18L118 -2L38 483H223L253 207L408 483H603L272 -60Q248 -99 224 -125T173 -167T116 -189T49 -196Q23 -196 -2 -193T-49 -183L8 -30ZM542 628Q542 608 534 591T511 559T479 537T441 529Q407 529 385 551T362 608Q362 627 370 645T393 677T425 699T463 707Q497 707 519 685T542 628ZM326 628Q326 608 318 591T295 559T263 537T225 529Q191 529 169 551T146 608Q146 627 154 645T177 677T209 699T247 707Q281 707 303 685T326 628Z"  />
<glyph unicode="&#x110;" horiz-adv-x="757" d="M21 0L77 254H9L44 413H112L168 667H461Q516 667 570 647T667 590T736 499T763 379Q763 316 741 249T667 126T530 36T318 0H21ZM358 176Q404 176 440 191T502 232T541 292T554 364Q554 391 545 414T518 454T477 481T424 491H331L314 413H442L407 254H279L262 176H358Z"  />
<glyph unicode="&#x131;" horiz-adv-x="280" d="M-4 0L103 483H283L176 0H-4Z"  />
<glyph unicode="&#x152;" horiz-adv-x="1062" d="M472 0L482 49Q451 20 408 4T307 -12Q251 -12 201 10T112 73T51 170T28 294Q28 381 59 451T142 572T263 649T408 677Q473 677 521 658T605 603L619 667H1125L1086 491H782L768 425H1065L1026 249H729L713 176H1017L978 0H472ZM564 416Q545 456 509 477T425 499Q381 499 346 483T287 441T250 380T237 308Q237 276 248 250T278 205T323 176T379 166Q424 166 461 185T524 237L564 416Z"  />
<glyph unicode="&#x153;" horiz-adv-x="901" d="M557 186V185Q557 180 563 170T582 150T612 133T655 125Q682 125 711 131T758 149L812 32Q783 13 739 1T641 -12Q575 -12 526 11T452 64Q434 49 415 35T374 11T327 -6T270 -12Q213 -12 166 3T85 47T33 117T14 213Q14 265 34 315T91 406T181 470T301 495Q363 495 410 472T484 418Q502 433 520 447T561 471T608 488T664 495Q707 495 747 482T818 442T869 374T888 275Q888 250 885 226T877 186H557ZM729 300V301Q729 308 726 318T714 337T692 352T657 358Q640 358 626 352T601 338T583 319T574 300H729ZM373 261Q373 299 351 317T294 336Q254 336 226 305T198 222Q198 185 219 166T277 147Q299 147 316 156T346 180T366 217T373 261Z"  />
<glyph unicode="&#x160;" horiz-adv-x="613" d="M344 723L285 867H388L436 794L513 867H620L500 723H344ZM316 -12Q263 -12 214 -3T121 23T42 64T-18 118L102 262Q119 239 144 221T200 189T264 168T332 160Q361 160 373 170T385 189Q385 203 362 213T303 235T226 261T149 299T90 355T66 438Q66 481 84 524T138 601T227 656T352 677Q434 677 511 649T643 566L522 426Q480 468 424 487T319 507Q299 507 289 499T278 480Q278 467 301 457T361 435T438 408T515 370T574 313T598 231Q598 178 578 134T522 57T433 7T316 -12Z"  />
<glyph unicode="&#x161;" horiz-adv-x="490" d="M247 556L188 700H291L339 627L416 700H523L403 556H247ZM231 -12Q198 -12 164 -7T96 10T34 38T-20 77L72 190Q84 179 103 166T146 142T196 124T248 116Q262 116 270 121T279 134Q279 148 262 156T218 171T162 188T105 213T62 254T44 318Q44 351 58 383T99 440T166 480T259 495Q320 495 379 475T484 417L400 308Q391 317 376 327T343 346T303 360T261 366Q241 366 233 359T224 345Q224 335 241 329T285 315T341 299T398 273T441 231T459 167Q459 129 444 97T399 40T327 2T231 -12Z"  />
<glyph unicode="&#x178;" horiz-adv-x="664" d="M651 795Q651 775 643 758T620 726T588 704T550 696Q516 696 494 718T471 775Q471 794 479 812T502 844T534 866T572 874Q606 874 628 852T651 795ZM435 795Q435 775 427 758T404 726T372 704T334 696Q300 696 278 718T255 775Q255 794 263 812T286 844T318 866T356 874Q390 874 412 852T435 795ZM178 0L236 265L75 667H292L366 442L538 667H775L438 265L380 0H178Z"  />
<glyph unicode="&#x17D;" horiz-adv-x="600" d="M326 723L267 867H370L418 794L495 867H602L482 723H326ZM-18 0L17 160L334 491H90L129 667H650L615 508L297 176H549L510 0H-18Z"  />
<glyph unicode="&#x17E;" horiz-adv-x="486" d="M232 556L173 700H276L324 627L401 700H508L388 556H232ZM-21 0L8 132L216 327H51L86 483H502L474 357L260 156H433L399 0H-21Z"  />
<glyph unicode="&#x192;" horiz-adv-x="477" d="M-64 -161L21 223H-19V379H55L83 506Q99 581 148 629T282 677Q324 677 368 665T446 622L375 481Q360 501 330 501Q313 501 299 491T280 459L262 379H349V223H228L142 -161H-64Z"  />
<glyph unicode="&#x2C6;" horiz-adv-x="335" d="M301 556L253 629L176 556H69L189 700H345L404 556H301Z"  />
<glyph unicode="&#x2C7;" horiz-adv-x="335" d="M160 556L101 700H204L252 627L329 700H436L316 556H160Z"  />
<glyph unicode="&#x2DA;" horiz-adv-x="222" d="M186 519Q140 519 112 547T84 621Q84 646 94 668T120 706T159 733T206 743Q252 743 280 715T308 641Q308 616 298 594T272 556T233 529T186 519ZM194 597Q208 597 219 608T230 633Q230 647 221 656T198 665Q184 665 173 654T162 629Q162 615 171 606T194 597Z"  />
<glyph unicode="&#x2DC;" horiz-adv-x="341" d="M311 554Q286 554 269 560T239 575T214 590T188 597Q167 597 160 560H70Q84 629 111 661T197 694Q222 694 239 688T270 673T295 658T321 651Q340 651 349 688H439Q424 619 397 587T311 554Z"  />
<glyph unicode="&#x2013;" horiz-adv-x="593" d="M13 167L46 317H579L546 167H13Z"  />
<glyph unicode="&#x2014;" horiz-adv-x="833" d="M13 167L46 317H819L786 167H13Z"  />
<glyph unicode="&#x2018;" horiz-adv-x="281" d="M73 440Q73 474 86 508T123 574T179 633T251 678L311 616Q298 611 282 603T250 583T221 559T199 532Q202 533 206 533T212 533Q244 533 268 513T293 448Q293 425 283 405T257 369T219 344T175 335Q155 335 137 341T105 361T82 394T73 440Z"  />
<glyph unicode="&#x2019;" horiz-adv-x="281" d="M325 572Q325 538 312 504T275 438T219 379T147 334L87 396Q100 401 116 409T148 429T177 453T199 480Q196 479 192 479T186 479Q154 479 130 499T105 564Q105 587 115 607T141 643T179 668T223 677Q242 677 260 671T293 651T316 618T325 572Z"  />
<glyph unicode="&#x201A;" horiz-adv-x="281" d="M220 97Q220 63 207 29T170 -37T114 -96T42 -141L-18 -79Q-5 -74 11 -66T43 -46T72 -22T94 5Q92 4 88 4T81 4Q49 4 25 24T0 89Q0 112 10 132T36 168T74 193T118 202Q137 202 155 196T188 176T211 143T220 97Z"  />
<glyph unicode="&#x201C;" horiz-adv-x="528" d="M316 440Q316 474 329 508T366 574T422 633T494 678L554 616Q541 611 525 603T493 583T464 559T442 532Q445 533 449 533T455 533Q487 533 511 513T536 448Q536 425 526 405T500 369T462 344T418 335Q398 335 380 341T348 361T325 394T316 440ZM69 440Q69 474 82 508T119 574T175 633T247 678L307 616Q294 611 278 603T246 583T217 559T195 532Q198 533 202 533T208 533Q240 533 264 513T289 448Q289 425 279 405T253 369T215 344T171 335Q151 335 133 341T101 361T78 394T69 440Z"  />
<glyph unicode="&#x201D;" horiz-adv-x="528" d="M325 572Q325 538 312 504T275 438T219 379T147 334L87 396Q100 401 116 409T148 429T177 453T199 480Q196 479 192 479T186 479Q154 479 130 499T105 564Q105 587 115 607T141 643T179 668T223 677Q242 677 260 671T293 651T316 618T325 572ZM572 572Q572 538 559 504T522 438T466 379T394 334L334 396Q347 401 363 409T395 429T424 453T446 480Q443 479 439 479T433 479Q401 479 377 499T352 564Q352 587 362 607T388 643T426 668T470 677Q489 677 507 671T540 651T563 618T572 572Z"  />
<glyph unicode="&#x201E;" horiz-adv-x="528" d="M220 97Q220 63 207 29T170 -37T114 -96T42 -141L-18 -79Q-5 -74 11 -66T43 -46T72 -22T94 5Q92 4 88 4T81 4Q49 4 25 24T0 89Q0 112 10 132T36 168T74 193T118 202Q137 202 155 196T188 176T211 143T220 97ZM467 97Q467 63 454 29T417 -37T361 -96T289 -141L229 -79Q242 -74 258 -66T290 -46T319 -22T341 5Q339 4 335 4T328 4Q296 4 272 24T247 89Q247 112 257 132T283 168T321 193T365 202Q384 202 402 196T435 176T458 143T467 97Z"  />
<glyph unicode="&#x2020;" horiz-adv-x="291" d="M245 517L207 327H119L166 517L76 513L94 594L183 591L197 677H285L262 591L351 594L333 513L245 517Z"  />
<glyph unicode="&#x2021;" horiz-adv-x="291" d="M333 513L245 517L206 342L296 346L278 265L190 268L174 180H86L110 268L21 265L39 346L126 342L165 517L76 513L94 594L182 591L197 677H285L262 591L351 594L333 513Z"  />
<glyph unicode="&#x2022;" horiz-adv-x="358" d="M310 255Q310 226 299 200T267 155T221 124T165 113Q114 113 81 146T48 230Q48 259 59 285T91 330T137 361T193 372Q244 372 277 339T310 255Z"  />
<glyph unicode="&#x2026;" horiz-adv-x="846" d="M98 -13Q57 -13 29 16T1 86Q1 110 10 131T36 167T73 192T118 202Q159 202 187 173T215 103Q215 79 206 58T180 22T143 -3T98 -13ZM380 -13Q339 -13 311 16T283 86Q283 110 292 131T318 167T355 192T400 202Q441 202 469 173T497 103Q497 79 488 58T462 22T425 -3T380 -13ZM662 -13Q621 -13 593 16T565 86Q565 110 574 131T600 167T637 192T682 202Q723 202 751 173T779 103Q779 79 770 58T744 22T707 -3T662 -13Z"  />
<glyph unicode="&#x2030;" horiz-adv-x="1160" d="M77 0L650 667H748L174 0H77ZM555 -12Q522 -12 491 -3T436 25T398 69T384 130Q384 173 399 209T441 270T502 310T576 324Q609 324 640 315T695 287T733 243T747 182Q747 139 732 103T690 42T629 2T555 -12ZM559 94Q587 94 606 114T625 171Q625 191 611 204T572 218Q544 218 525 198T506 141Q506 121 520 108T559 94ZM247 341Q214 341 183 350T128 378T90 422T76 483Q76 526 91 562T133 623T194 663T268 677Q301 677 332 668T387 640T425 596T439 535Q439 492 424 456T382 395T321 355T247 341ZM251 447Q279 447 298 467T317 524Q317 544 303 557T264 571Q236 571 217 551T198 494Q198 474 212 461T251 447ZM931 -12Q898 -12 867 -3T812 25T774 69T760 130Q760 173 775 209T817 270T878 310T952 324Q985 324 1016 315T1071 287T1109 243T1123 182Q1123 139 1108 103T1066 42T1005 2T931 -12ZM935 94Q963 94 982 114T1001 171Q1001 191 987 204T948 218Q920 218 901 198T882 141Q882 121 896 108T935 94Z"  />
<glyph unicode="&#x2039;" horiz-adv-x="380" d="M149 63L29 243L229 420H393L189 238L305 63H149Z"  />
<glyph unicode="&#x203A;" horiz-adv-x="380" d="M233 420L353 240L153 63H-11L193 245L77 420H233Z"  />
<glyph unicode="&#x2044;" horiz-adv-x="180" d="M-129 0H-226L347 667H445L-129 0Z"  />
<glyph unicode="&#x20AC;" horiz-adv-x="722" d="M407 -12Q346 -12 291 3T192 48T116 118T69 213H5L28 318H60Q60 334 63 351H35L59 456H92Q115 508 152 549T237 618T341 662T460 678Q533 678 588 659T681 608T744 537T780 457L586 396Q577 443 541 471T451 500Q416 500 387 488T334 456H517L493 351H272Q270 343 269 335T268 318H486L463 213H304Q324 191 352 179T418 166Q437 166 457 172T496 188T529 213T553 243L711 141Q680 96 642 67T562 20T481 -5T407 -12Z"  />
<glyph unicode="&#x2122;" horiz-adv-x="454" d="M436 447L476 629L361 447H353L318 629L278 447H250L298 667H341L370 507L469 667H512L464 447H436ZM195 641L152 447H124L167 641H105L110 667H262L257 641H195Z"  />
<glyph unicode="&#xF656;" horiz-adv-x="336" d="M90 0L140 229L57 163L-1 242L197 400H310L222 0H90Z"  />
<glyph unicode="&#xF657;" horiz-adv-x="407" d="M-12 0L10 99Q93 146 140 174T212 220T242 248T248 269Q248 284 235 293T197 302Q165 302 134 290T86 261L34 349Q50 363 71 373T114 391T160 402T203 406Q245 406 278 397T335 371T371 332T384 282Q384 260 375 240T344 198T289 154T203 104H349L326 0H-12Z"  />
<glyph unicode="&#xF658;" horiz-adv-x="407" d="M355 110Q355 89 344 68T312 31T259 4T187 -7Q121 -7 68 13T-11 67L68 149Q90 121 121 109T180 97Q206 97 215 105T225 125Q225 151 146 151Q138 151 126 151T109 150L131 252Q134 252 143 252T163 251T184 251T200 251Q229 251 240 257T252 276Q252 290 232 296T186 302Q160 302 134 295T86 271L45 353Q75 379 116 392T200 406Q289 406 338 376T387 295Q387 279 381 263T362 232T327 209T277 197Q312 188 333 167T355 110Z"  />
<glyph unicode="&#xF659;" horiz-adv-x="407" d="M308 71L293 0H162L177 71H-20L0 158L196 400H381L331 173H378L355 71H308ZM225 287L133 173H200L225 287Z"  />


</font>
</defs>
</svg>
